<svg width="289" height="52" viewBox="0 0 289 52" fill="none" xmlns="http://www.w3.org/2000/svg">
<path d="M46.8721 28.875V8.25H50.9971V4.125H55.1221V0H67.4971V4.125H71.6221V8.25H75.7471V28.875H67.4971V20.625H55.1221V28.875H46.8721ZM55.1221 16.5H67.4971V8.25H63.3721V4.125H59.2471V8.25H55.1221V16.5ZM83.9971 33V28.875H100.497V24.75H83.9971V20.625H79.8721V12.375H83.9971V8.25H108.747V28.875H104.622V33H83.9971ZM88.1221 20.625H100.497V12.375H88.1221V20.625ZM116.997 28.875V24.75H112.872V12.375H116.997V8.25H137.622V12.375H141.747V20.625H121.122V24.75H137.622V28.875H116.997ZM121.122 16.5H133.497V12.375H121.122V16.5ZM145.872 28.875V8.25H170.622V12.375H174.747V28.875H166.497V12.375H154.122V28.875H145.872ZM182.997 28.875V24.75H178.872V12.375H182.997V8.25H207.747V12.375H187.122V24.75H207.747V28.875H182.997ZM215.997 33V28.875H232.497V24.75H215.997V20.625H211.872V8.25H220.122V20.625H232.497V8.25H240.747V28.875H236.622V33H215.997Z" fill="white"/>
<rect x="14" y="4" width="18" height="25" fill="white"/>
<rect y="4" width="9" height="25" fill="white"/>
<rect width="18" height="25" transform="matrix(-1 0 0 1 275 4)" fill="white"/>
<rect width="9" height="25" transform="matrix(-1 0 0 1 289 4)" fill="white"/>
</svg>
