<svg width="125" height="75" viewBox="0 0 125 75" fill="none" xmlns="http://www.w3.org/2000/svg">
<g opacity="0.8">
<path d="M78.6667 2.91406V7.28906M90.3333 2.91406V7.28906M72.1042 13.2536H96.8958M97.625 12.3932V24.7891C97.625 29.1641 95.4375 32.0807 90.3333 32.0807H78.6667C73.5625 32.0807 71.375 29.1641 71.375 24.7891V12.3932C71.375 8.01823 73.5625 5.10156 78.6667 5.10156H90.3333C95.4375 5.10156 97.625 8.01823 97.625 12.3932Z" stroke="white" stroke-width="1.5" stroke-miterlimit="10" stroke-linecap="round" stroke-linejoin="round"/>
<path d="M89.8888 19.9766H89.902M89.8888 24.3516H89.902M84.493 19.9766H84.5076M84.493 24.3516H84.5076M79.0957 19.9766H79.1103M79.0957 24.3516H79.1103" stroke="white" stroke-width="2" stroke-linecap="round" stroke-linejoin="round"/>
<path d="M47.5 58.625V49H55.75V50.375H57.125V54.5H54.375V55.875H55.75V57.25H57.125V58.625H53V57.25H51.625V55.875H50.25V58.625H47.5ZM50.25 54.5H53V53.125H54.375V50.375H50.25V54.5ZM59.875 58.625V57.25H58.5V50.375H59.875V49H66.75V50.375H68.125V57.25H66.75V58.625H59.875ZM61.25 57.25H65.375V50.375H61.25V57.25ZM69.5 58.625V51.75H70.875V50.375H72.25V49H76.375V50.375H77.75V51.75H79.125V58.625H76.375V55.875H72.25V58.625H69.5ZM72.25 54.5H76.375V51.75H75V50.375H73.625V51.75H72.25V54.5ZM80.5 58.625V49H87.375V50.375H88.75V51.75H90.125V55.875H88.75V57.25H87.375V58.625H80.5ZM83.25 57.25H86V55.875H87.375V51.75H86V50.375H83.25V57.25ZM91.5 58.625V49H94.25V50.375H95.625V51.75H97V50.375H98.375V49H101.125V58.625H98.375V53.125H97V55.875H95.625V53.125H94.25V58.625H91.5ZM102.5 58.625V51.75H103.875V50.375H105.25V49H109.375V50.375H110.75V51.75H112.125V58.625H109.375V55.875H105.25V58.625H102.5ZM105.25 54.5H109.375V51.75H108V50.375H106.625V51.75H105.25V54.5ZM113.5 58.625V49H121.75V50.375H123.125V54.5H121.75V55.875H116.25V58.625H113.5ZM116.25 54.5H120.375V50.375H116.25V54.5Z" fill="white"/>
<path d="M38.25 36V33.75H24.75V36H38.25ZM20.25 42.75V40.5H18V38.25H15.75V36H13.5V33.75H15.75V31.5H18V29.25H20.25V27H15.75V29.25H13.5V31.5H11.25V33.75H9V36H11.25V38.25H13.5V40.5H15.75V42.75H20.25Z" fill="white"/>
</g>
</svg>
