<svg width="113" height="67" viewBox="0 0 113 67" fill="none" xmlns="http://www.w3.org/2000/svg">
<g opacity="0.8">
<path d="M23 24H44M26.0333 8.337H24.1667C23.525 8.337 23 8.8545 23 9.487V19.4C23 20.0325 23.525 20.55 24.1667 20.55H26.0333C26.675 20.55 27.2 20.0325 27.2 19.4V9.487C27.2 8.8545 26.675 8.337 26.0333 8.337ZM34.4333 4.6685H32.5667C31.925 4.6685 31.4 5.186 31.4 5.8185V19.4C31.4 20.0325 31.925 20.55 32.5667 20.55H34.4333C35.075 20.55 35.6 20.0325 35.6 19.4V5.8185C35.6 5.186 35.075 4.6685 34.4333 4.6685ZM42.8333 1H40.9667C40.325 1 39.8 1.5175 39.8 2.15V19.4C39.8 20.0325 40.325 20.55 40.9667 20.55H42.8333C43.475 20.55 44 20.0325 44 19.4V2.15C44 1.5175 43.475 1 42.8333 1Z" stroke="white" stroke-width="1.5" stroke-linecap="round" stroke-linejoin="round"/>
<path d="M7.875 50.625V49.25H6.5V47.875H9.25V49.25H13.375V46.5H7.875V45.125H6.5V42.375H7.875V41H14.75V42.375H16.125V43.75H13.375V42.375H9.25V45.125H14.75V46.5H16.125V49.25H14.75V50.625H7.875ZM21.625 50.625V42.375H18.875V41H27.125V42.375H24.375V50.625H21.625ZM28.5 50.625V43.75H29.875V42.375H31.25V41H35.375V42.375H36.75V43.75H38.125V50.625H35.375V47.875H31.25V50.625H28.5ZM31.25 46.5H35.375V43.75H34V42.375H32.625V43.75H31.25V46.5ZM43.625 50.625V42.375H40.875V41H49.125V42.375H46.375V50.625H43.625ZM51.875 50.625V49.25H50.5V47.875H53.25V49.25H57.375V46.5H51.875V45.125H50.5V42.375H51.875V41H58.75V42.375H60.125V43.75H57.375V42.375H53.25V45.125H58.75V46.5H60.125V49.25H58.75V50.625H51.875Z" fill="white"/>
<path d="M74.75 28V25.75H88.25V28H74.75ZM92.75 34.75V32.5H95V30.25H97.25V28H99.5V25.75H97.25V23.5H95V21.25H92.75V19H97.25V21.25H99.5V23.5H101.75V25.75H104V28H101.75V30.25H99.5V32.5H97.25V34.75H92.75Z" fill="white"/>
</g>
</svg>
